<svg width="181" height="188" viewBox="0 0 181 188" fill="none" xmlns="http://www.w3.org/2000/svg">
<path d="M90.4919 14L100.386 53.5435L128.738 24.2508L117.546 63.4537L156.749 52.2459L127.44 80.5979L167 90.4919L127.44 100.386L156.749 128.738L117.546 117.546L128.738 156.749L100.386 127.44L90.4919 167L80.5979 127.44L52.2459 156.749L63.4537 117.546L24.2508 128.738L53.5435 100.386L14 90.4919L53.5435 80.5979L24.2508 52.2459L63.4537 63.4537L52.2459 24.2508L80.5979 53.5435L90.4919 14Z" fill="white" stroke="#1D1D1B" stroke-width="6.65685" stroke-miterlimit="10"/>
<path d="M122.958 188C119.856 188 116.891 187.696 114.113 187.104C109.188 186.039 104.996 184.06 101.639 181.22C94.516 175.166 91.7724 165.917 89.114 156.972C88.9436 156.431 88.7902 155.89 88.6198 155.349C85.9273 146.336 82.0419 136.529 73.6917 132.116C66.0403 128.075 56.821 129.563 47.9255 131.017L47.5165 131.085C37.9224 132.64 28.0215 133.35 20.6597 127.956C14.0307 123.087 10.7929 113.584 12.4118 103.709C14.6953 89.7084 25.9765 77.5001 39.831 74L40.2059 75.4711C26.9308 78.819 16.1268 90.52 13.9284 103.946C12.4118 113.246 15.411 122.174 21.5799 126.688C28.4986 131.744 38.0246 131.051 47.278 129.546L47.687 129.478C56.412 128.058 66.3129 126.451 74.4245 130.729C83.2689 135.413 87.3076 145.559 90.1024 154.875C90.2728 155.416 90.4261 155.958 90.5966 156.516C93.1868 165.257 95.8793 174.287 102.645 180.053C108.524 185.058 117.522 187.256 127.951 186.225C142.487 184.787 154.671 177.872 160.516 167.709C162.885 163.617 164.453 158.697 165.492 152.221C167.435 140.097 166.464 129.377 162.595 120.364C158.097 109.881 149.201 101.967 139.368 99.7354L139.709 98.2474C144.958 99.4479 150.036 102.153 154.347 106.11C158.437 109.83 161.777 114.565 164.01 119.772C167.98 129.039 169.003 140.046 167.009 152.457C165.935 159.12 164.3 164.192 161.846 168.453C155.745 179.038 143.134 186.241 128.104 187.713C126.349 187.899 124.628 188 122.958 188Z" fill="white"/>
<path d="M50.9053 55.8326L50.1035 59.9785L59.7459 61.8458L60.5476 57.6999L50.9053 55.8326Z" fill="#CCFF00"/>
<path d="M60.4766 62.9528L48.9902 60.7372L50.1445 54.7344L61.6309 56.9689L60.4766 62.9528ZM51.2042 59.2412L58.9816 60.7561L59.4169 58.4648L51.6395 56.9499L51.2042 59.2412Z" fill="black"/>
<path d="M152.443 84.8053L143.208 132.544C142.735 134.968 140.54 136.577 138.137 136.388H138.118C137.948 136.369 137.777 136.35 137.588 136.312L130.265 134.816L28.2314 113.929C25.6767 113.399 24.0304 110.919 24.5224 108.381L33.7191 60.775C34.2111 58.1997 36.7089 56.5143 39.2825 57.0256L71.6978 63.2936L83.0516 48.3338C84.1681 46.8568 86.0225 46.1561 87.8392 46.497L114.464 51.6477C116.375 52.0075 117.87 53.4845 118.286 55.3781L122.374 73.9737L122.412 74.1441L148.658 79.2191C151.251 79.7303 152.935 82.2299 152.443 84.8053Z" fill="#CCFF00"/>
<path d="M148.866 78.3101L123.225 73.3488L119.232 55.1698C118.74 52.8975 116.943 51.1553 114.653 50.7198L88.028 45.5691C85.833 45.1525 83.6379 45.9857 82.3133 47.7468L71.3 62.252L39.4903 56.0977C36.4058 55.5107 33.4159 57.5179 32.8293 60.6046L23.5948 108.192C23.0082 111.24 24.9951 114.232 28.0418 114.857L130.075 135.725L137.417 137.221C137.607 137.259 137.796 137.278 137.966 137.316L138.061 137.335C138.231 137.354 138.382 137.354 138.534 137.354C141.24 137.354 143.605 135.441 144.135 132.733L153.37 84.9946C153.956 81.8891 151.931 78.8971 148.866 78.3101ZM28.4392 113.002C26.4144 112.585 25.0708 110.597 25.4682 108.552L34.6649 60.9454C34.8541 59.9418 35.4218 59.0897 36.2733 58.5216C37.1059 57.9535 38.1278 57.7452 39.1307 57.9345L72.0948 64.3161L83.8082 48.8829C84.7165 47.6899 86.1925 47.1219 87.6685 47.4059L110.301 51.7991L114.937 73.6517L121.635 74.9394L143.776 79.219L133.103 134.381L130.454 133.832L28.4392 113.002Z" fill="black"/>
<path d="M106.204 101.453C108.513 89.511 100.712 77.957 88.7785 75.646C76.8453 73.3351 65.2994 81.1422 62.99 93.0838C60.6807 105.025 68.4824 116.579 80.4156 118.89C92.3489 121.201 103.895 113.394 106.204 101.453Z" fill="white"/>
<path d="M100.565 100.369C102.875 88.4277 95.0731 76.8737 83.1399 74.5628C71.2066 72.2518 59.6607 80.059 57.3514 92.0006C55.042 103.942 62.8437 115.496 74.777 117.807C86.7102 120.118 98.2561 112.311 100.565 100.369Z" fill="black"/>
<path d="M78.9657 116.334C77.6978 116.334 76.411 116.221 75.1243 115.956C64.2245 113.835 57.0527 103.249 59.1721 92.3229C60.1939 87.0397 63.2216 82.4571 67.6686 79.4462C72.1344 76.4353 77.4897 75.337 82.7692 76.3596C93.6689 78.4804 100.841 89.0659 98.7214 99.9922C96.8669 109.631 88.4083 116.334 78.9657 116.334ZM78.9089 77.723C75.2567 77.723 71.6992 78.8023 68.6147 80.8853C64.5273 83.6501 61.7645 87.835 60.8373 92.6638C58.9072 102.662 65.4545 112.358 75.446 114.289C85.4374 116.221 95.126 109.669 97.0562 99.6703C98.9863 89.6718 92.4389 79.9764 82.4475 78.0449C81.2743 77.8366 80.0821 77.723 78.9089 77.723Z" fill="white"/>
<path d="M88.596 83.6689L90.5261 83.4227C90.9046 83.3659 91.2831 83.4795 91.5858 83.7067C92.5509 84.4263 93.4781 85.2406 94.8974 88.4029C95.3705 89.4823 95.6922 90.8268 95.8057 91.3949C95.9382 92.1145 95.5218 92.8151 94.8217 93.0424L92.4563 93.7998C91.6237 94.0649 90.7532 93.5347 90.6018 92.6826C90.4504 91.7168 90.1288 90.4102 89.4664 88.971C88.9177 87.778 88.2554 86.7934 87.6309 86.017C86.9686 85.108 87.4984 83.8203 88.596 83.6689Z" fill="white"/>
<path d="M83.8846 56.6657C84.4901 55.6431 85.6823 55.1129 86.8366 55.3401L102.524 58.37C103.697 58.5972 104.586 59.5251 104.776 60.6991L104.814 60.9643C105.116 62.9147 103.375 64.5811 101.445 64.1645L85.7202 60.8696C83.8278 60.4908 82.8817 58.3321 83.8846 56.6657Z" fill="black"/>
<path d="M133.69 92.115L116.867 88.8579L118.778 79.011L135.601 82.268L133.69 92.115Z" fill="#FF9933"/>
<path d="M45.433 75.0154L37.6556 73.5005C37.5421 73.4815 37.4664 73.3679 37.4853 73.2543L39.3776 63.521C39.3966 63.4074 39.5101 63.3316 39.6236 63.3506L47.401 64.8655C47.5146 64.8844 47.5903 64.998 47.5713 65.1116L45.679 74.8449C45.6412 74.9775 45.5276 75.0343 45.433 75.0154Z" fill="black"/>
<path d="M36.7217 107.676L31.4082 106.647L30.3799 111.964L35.6934 112.993L36.7217 107.676Z" fill="white"/>
<path d="M129.788 125.686L124.475 124.657L123.446 129.974L128.76 131.003L129.788 125.686Z" fill="white"/>
<path d="M66.2284 55.5676L65.6229 58.6921C65.4904 59.3927 64.8281 59.8282 64.1279 59.6957L46.4348 56.2682C45.7347 56.1356 45.2994 55.4729 45.4319 54.7722L46.0374 51.6477C46.1699 50.966 46.8322 50.5115 47.5324 50.6441L65.2255 54.0716C65.9067 54.2231 66.3609 54.8858 66.2284 55.5676Z" fill="black"/>
<path d="M47.9496 50.7388L46.871 56.344L46.625 56.3061L47.7036 50.7009L47.9496 50.7388ZM49.577 51.0607L48.4984 56.6659L48.7444 56.7038L49.823 51.0986L49.577 51.0607ZM51.4504 51.4205L50.3718 57.0257L50.6178 57.0636L51.6964 51.4584L51.4504 51.4205ZM53.3238 51.7803L52.2452 57.3855L52.4912 57.4233L53.5698 51.8182L53.3238 51.7803ZM55.1972 52.1401L54.1186 57.7453L54.3646 57.7831L55.4432 52.178L55.1972 52.1401ZM57.0706 52.4999L55.9919 58.1051L56.2379 58.1429L57.3166 52.5378L57.0706 52.4999ZM58.925 52.8597L57.8464 58.4648L58.0924 58.5027L59.171 52.8976L58.925 52.8597ZM60.7984 53.2195L59.7198 58.8246L59.9658 58.8625L61.0444 53.2573L60.7984 53.2195ZM62.6718 53.5793L61.5932 59.1844L61.8392 59.2223L62.9178 53.6171L62.6718 53.5793ZM64.5452 53.958L63.4666 59.5632L63.6937 59.601L64.7723 53.9959L64.5452 53.958Z" fill="white"/>
</svg>
