<svg width="38" height="44" viewBox="0 0 38 44" fill="none" xmlns="http://www.w3.org/2000/svg">
<g id="Group 70">
<path id="Vector" d="M31.6472 3.30722C29.6164 0.992415 25.9452 2.32482e-08 21.2487 2.32482e-08H7.61809C7.15339 -7.16702e-05 6.70392 0.165676 6.35052 0.467429C5.99712 0.769182 5.76299 1.18713 5.69025 1.64611L0.0147281 37.6417C-0.0980828 38.3515 0.451542 38.9942 1.17097 38.9942H9.58602L11.6994 25.5894L11.6338 26.0092C11.7844 25.0616 12.5947 24.3628 13.5544 24.3628H17.5532C25.4088 24.3628 31.5599 21.172 33.3568 11.9418C33.4101 11.6688 33.4563 11.4031 33.4962 11.1435C33.2695 11.0234 33.2695 11.0234 33.4962 11.1435C34.0313 7.73192 33.4926 5.40967 31.6472 3.30722Z" fill="#27346A"/>
<path id="Vector_2" d="M14.9193 9.91453C15.1493 9.80481 15.401 9.74804 15.6558 9.74837H26.3419C27.6073 9.74837 28.7876 9.83072 29.8662 10.0043C30.168 10.0525 30.4682 10.1099 30.7665 10.1766C31.1892 10.2699 31.607 10.3841 32.0185 10.5187C32.5487 10.6958 33.0425 10.902 33.4964 11.1435C34.0313 7.7306 33.4926 5.40967 31.6472 3.30722C29.6152 0.992415 25.9452 0 21.2487 0H7.61693C6.65716 0 5.84067 0.698728 5.69025 1.64611L0.0147289 37.6403C-0.098082 38.3513 0.451543 38.9932 1.1698 38.9932H9.58602L13.9706 11.1884C14.0138 10.9151 14.1227 10.6564 14.2879 10.4345C14.4532 10.2126 14.6698 10.0342 14.9193 9.91453Z" fill="#27346A"/>
<path id="Vector_3" d="M33.356 11.9418C31.5592 21.1707 25.4082 24.3628 17.5524 24.3628H13.5524C12.5928 24.3628 11.7823 25.0617 11.6332 26.0092L9.004 42.6765C8.90576 43.2977 9.38615 43.8606 10.0146 43.8606H17.1083C17.5147 43.8605 17.9076 43.7154 18.2166 43.4514C18.5255 43.1875 18.7301 42.8219 18.7936 42.4206L18.8627 42.0591L20.1997 33.5858L20.2858 33.1175C20.3493 32.7161 20.5539 32.3506 20.8628 32.0867C21.1717 31.8227 21.5647 31.6776 21.971 31.6775H23.0326C29.9043 31.6775 35.285 28.8858 36.8573 20.8118C37.5137 17.4376 37.1741 14.6206 35.4379 12.6419C34.9113 12.0425 34.2573 11.5476 33.4955 11.1436C33.4542 11.4044 33.4095 11.6688 33.356 11.9418Z" fill="#2790C3"/>
<path id="Vector_4" d="M31.6155 10.3936C31.3354 10.3118 31.0526 10.2393 30.7676 10.1764C30.4692 10.1108 30.1689 10.0537 29.8673 10.0053C28.7876 9.83054 27.6081 9.74805 26.3416 9.74805H15.6567C15.4018 9.74762 15.15 9.80487 14.9203 9.91552C14.6705 10.0347 14.4535 10.213 14.2882 10.435C14.1228 10.657 14.0141 10.9159 13.9714 11.1894L11.7004 25.5892L11.6348 26.009C11.7842 25.0615 12.5945 24.3626 13.5543 24.3626H17.5543C25.4099 24.3626 31.5609 21.1718 33.3577 11.9416C33.4112 11.6686 33.4561 11.4041 33.4973 11.1433C33.0424 10.9033 32.5498 10.6954 32.0194 10.5197C31.8856 10.4753 31.751 10.4332 31.6157 10.3936" fill="#1F264F"/>
</g>
</svg>
